#!OML:ASF F:\VICON\USERDATA\INSTALL\rory3\rory3.ASF
:FULLY-SPECIFIED
:DEGREES
1394
root -1.5991 17.5771 -5.1358 -179.392 224.895 -167.354
lowerback 23.4994 0.51842 -3.10789
upperback 11.6879 -0.427752 -0.54148
thorax -0.248268 -0.505039 1.28337
lowerneck 0.488692 -2.44145 -4.16195
upperneck 24.1071 -5.1169 7.78642
head 7.59308 -2.28787 2.94868
rclavicle 2.38542e-014 -4.53229e-014
rhumerus -41.476 20.6222 -95.7537
rradius 39.4466
rwrist 14.5297
rhand -39.3191 13.9247
rfingers 7.12502
rthumb -12.3113 -15.6929
lclavicle 2.38542e-014 -4.53229e-014
lhumerus -40.7622 -16.6758 99.1571
lradius 37.3973
lwrist 1.19385
lhand -21.9466 24.3375
lfingers 7.12502
lthumb 4.46037 54.2705
rfemur -45.3295 -2.72332 6.73017
rtibia 52.1877
rfoot -23.3163 -2.4474
rtoes -11.1618
lfemur -40.6401 10.0624 -16.1747
ltibia 49.2532
lfoot -0.398551 0.945273
ltoes -23.1566
1395
root -1.55167 17.5247 -5.14774 -179.279 224.87 -167.736
lowerback 23.6007 0.494386 -3.12843
upperback 11.7028 -0.4675 -0.514153
thorax -0.27828 -0.527484 1.33416
lowerneck 0.736465 -2.35992 -4.63054
upperneck 23.9395 -5.00381 7.96857
head 7.499 -2.26901 3.09964
rclavicle -7.95139e-016 1.74931e-014
rhumerus -41.5686 20.7472 -95.8306
rradius 39.6001
rwrist 14.4588
rhand -41.3805 12.3514
rfingers 7.12502
rthumb -14.2983 -17.1363
lclavicle -7.95139e-016 1.74931e-014
lhumerus -40.7792 -16.5175 99.1198
lradius 37.5575
lwrist 0.609354
lhand -21.4396 23.5868
lfingers 7.12502
lthumb 4.94992 53.509
rfemur -45.6889 -3.07308 7.04086
rtibia 52.7824
rfoot -23.33 -2.10228
rtoes -11.4408
lfemur -41.0649 10.1732 -16.0083
ltibia 49.964
lfoot -0.798204 1.05888
ltoes -22.385
1396
root -1.50693 17.4804 -5.15467 -179.345 224.898 -168.008
lowerback 23.7243 0.571086 -3.26168
upperback 11.741 -0.400757 -0.399235
thorax -0.295367 -0.505917 1.51853
lowerneck 0.926338 -2.33833 -4.99086
upperneck 23.8012 -4.93045 7.91306
head 7.42105 -2.27406 3.14915
rclavicle -2.3059e-014 1.90833e-014
rhumerus -41.5939 20.69 -95.5721
rradius 39.504
rwrist 14.6399
rhand -42.1948 13.1133
rfingers 7.12502
rthumb -15.0829 -16.3172
lclavicle -2.3059e-014 1.90833e-014
lhumerus -40.846 -16.5225 99.4021
lradius 37.6765
lwrist 0.0851071
lhand -21.2521 23.0036
lfingers 7.12502
lthumb 5.13096 52.9215
rfemur -45.9031 -3.43834 7.27593
rtibia 53.3651
rfoot -23.412 -1.76303
rtoes -11.6439
lfemur -41.3119 10.3434 -15.949
ltibia 50.6664
lfoot -1.31919 1.12817
ltoes -22.2132
1397
root -1.46136 17.4366 -5.16199 -179.532 224.953 -168.128
lowerback 23.7936 0.607887 -3.04862
upperback 11.803 -0.3249 -0.620364
thorax -0.268857 -0.454937 1.14248
lowerneck 0.992622 -2.35296 -4.88013
upperneck 23.7601 -4.95936 7.93896
head 7.39582 -2.2785 3.13722
rclavicle 5.00937e-014 0
rhumerus -41.5538 20.0941 -95.5254
rradius 39.3357
rwrist 15.1853
rhand -41.3965 16.4723
rfingers 7.12502
rthumb -14.3137 -13.0144
lclavicle 5.00937e-014 0
lhumerus -41.0247 -17.1743 99.4551
lradius 37.8696
lwrist -0.124838
lhand -21.0947 22.766
lfingers 7.12502
lthumb 5.28295 52.6801
rfemur -46.1347 -3.72865 7.37178
rtibia 53.9607
rfoot -23.4674 -1.54919
rtoes -11.8582
lfemur -41.521 10.4976 -16.0042
ltibia 51.3502
lfoot -1.82525 1.2749
ltoes -22.0476
1398
root -1.41485 17.3853 -5.17253 -179.489 224.816 -168.495
lowerback 23.8878 0.621963 -2.86621
upperback 11.824 -0.274155 -0.618393
thorax -0.29517 -0.422455 1.02968
lowerneck 1.02063 -2.37663 -4.95358
upperneck 23.7739 -4.99839 7.99258
head 7.40106 -2.29922 3.16598
rclavicle -1.78906e-014 -1.98785e-014
rhumerus -41.6208 19.7504 -95.4119
rradius 39.3217
rwrist 15.7968
rhand -40.2314 19.7127
rfingers 7.12502
rthumb -13.1908 -9.85002
lclavicle -1.78906e-014 -1.98785e-014
lhumerus -41.2231 -17.8258 99.7508
lradius 38.1448
lwrist 0.00817879
lhand -21.1891 22.8091
lfingers 7.12502
lthumb 5.19177 52.7255
rfemur -46.3805 -4.09481 7.62434
rtibia 54.5657
rfoot -23.5198 -1.41059
rtoes -12.0124
lfemur -41.815 10.4948 -15.8771
ltibia 52.0283
lfoot -2.19994 1.33571
ltoes -21.9689
1399
root -1.37134 17.3297 -5.17849 -179.686 224.765 -168.582
lowerback 23.9618 0.701701 -2.99038
upperback 11.8588 -0.202405 -0.623521
thorax -0.293528 -0.393486 1.07804
lowerneck 1.03133 -2.37999 -5.02799
upperneck 23.819 -4.99511 7.96367
head 7.41515 -2.30572 3.17016
rclavicle -2.46493e-014 1.59028e-015
rhumerus -41.8196 19.7263 -95.411
rradius 39.4536
rwrist 16.2843
rhand -39.8029 21.3445
rfingers 7.12502
rthumb -12.7778 -8.24453
lclavicle -2.46493e-014 1.59028e-015
lhumerus -41.4048 -18.3518 100.066
lradius 38.3968
lwrist 0.354099
lhand -21.5304 22.8078
lfingers 7.12502
lthumb 4.86218 52.732
rfemur -46.6165 -4.44291 7.66451
rtibia 55.192
rfoot -23.5804 -1.12598
rtoes -12.1775
lfemur -41.9846 10.629 -15.9794
ltibia 52.6985
lfoot -2.6007 1.27091
ltoes -22.0208
1400
root -1.3288 17.2808 -5.18313 -179.872 224.788 -168.765
lowerback 24.001 0.778914 -3.05643
upperback 11.9353 -0.123471 -0.646668
thorax -0.230029 -0.360305 1.0718
lowerneck 1.06958 -2.36144 -4.95351
upperneck 23.811 -4.94865 7.84324
head 7.39838 -2.28769 3.12041
rclavicle -1.02175e-013 1.20861e-013
rhumerus -42.0335 19.8264 -95.4644
rradius 39.707
rwrist 15.9727
rhand -39.5351 22.5512
rfingers 7.12502
rthumb -12.5196 -7.05373
lclavicle -1.02175e-013 1.20861e-013
lhumerus -41.5383 -18.7188 100.251
lradius 38.6087
lwrist 0.740256
lhand -21.6311 22.6215
lfingers 7.12502
lthumb 4.76494 52.5479
rfemur -46.7855 -4.73326 7.79522
rtibia 55.8005
rfoot -23.6625 -0.819707
rtoes -12.3912
lfemur -42.075 10.8603 -15.9914
ltibia 53.3568
lfoot -3.01359 1.25972
ltoes -20.5722
1401
root -1.28569 17.233 -5.19273 -179.829 224.821 -169.227
lowerback 24.0308 0.80711 -2.95659
upperback 11.9787 -0.0701806 -0.617125
thorax -0.199178 -0.333151 1.03424
lowerneck 1.01851 -2.31196 -5.06235
upperneck 23.9329 -4.88579 7.85401
head 7.44589 -2.26503 3.1476
rclavicle 1.01778e-013 -9.97899e-014
rhumerus -42.3286 20.1482 -95.6611
rradius 40.0195
rwrist 15.1557
rhand -40.1808 22.7093
rfingers 7.12502
rthumb -13.142 -6.85658
lclavicle 1.01778e-013 -9.97899e-014
lhumerus -41.6945 -18.9148 100.371
lradius 38.8592
lwrist 1.23715
lhand -21.3804 22.5505
lfingers 7.12502
lthumb 5.00709 52.4714
rfemur -46.9883 -4.89647 8.13468
rtibia 56.3907
rfoot -23.7519 -0.593575
rtoes -12.3009
lfemur -42.2511 11.0778 -15.7488
ltibia 54.0092
lfoot -3.37045 1.32248
ltoes -18.0711
1402
root -1.2457 17.1857 -5.20308 -180.048 224.841 -169.342
lowerback 24.0741 0.837008 -3.14473
upperback 12.0579 -0.0785439 -0.684664
thorax -0.130132 -0.3476 1.06993
lowerneck 0.696535 -2.23796 -4.96364
upperneck 24.2312 -4.77213 7.69377
head 7.589 -2.20667 3.08351
rclavicle 4.09496e-014 2.18663e-014
rhumerus -42.7505 20.8479 -96.2083
rradius 40.514
rwrist 14.5358
rhand -42.287 20.2212
rfingers 7.12502
rthumb -15.1716 -9.2026
lclavicle 4.09496e-014 2.18663e-014
lhumerus -41.7399 -18.8918 100.234
lradius 39.1811
lwrist 1.63958
lhand -20.9469 22.4986
lfingers 7.12502
lthumb 5.42566 52.4092
rfemur -47.1572 -5.08933 8.19893
rtibia 56.9596
rfoot -23.8096 -0.40243
rtoes -12.4642
lfemur -42.3819 11.2814 -15.7601
ltibia 54.6379
lfoot -3.65081 1.25875
ltoes -17.3218
1403
root -1.20702 17.1384 -5.21519 -180.304 224.749 -169.378
lowerback 24.0868 0.874122 -3.36936
upperback 12.1383 -0.0823382 -0.758598
thorax -0.0446769 -0.360929 1.11818
lowerneck 0.567425 -2.18163 -4.66209
upperneck 24.3029 -4.67211 7.48283
head 7.61848 -2.14736 2.96623
rclavicle 1.66979e-014 2.42517e-014
rhumerus -43.3347 21.5472 -96.8449
rradius 41.3553
rwrist 13.511
rhand -43.3726 17.3354
rfingers 7.12502
rthumb -16.2171 -12.0063
lclavicle 1.66979e-014 2.42517e-014
lhumerus -41.8198 -18.8598 100.049
lradius 39.5682
lwrist 1.71873
lhand -20.7631 22.163
lfingers 7.12502
lthumb 5.60304 52.0689
rfemur -47.3089 -5.40366 8.20996
rtibia 57.5084
rfoot -23.8296 -0.266256
rtoes -12.8721
lfemur -42.5711 11.3846 -15.8117
ltibia 55.2584
lfoot -3.81436 1.09307
ltoes -17.3205
1404
root -1.16915 17.0923 -5.22969 -180.46 224.635 -169.536
lowerback 24.1093 0.97206 -3.39701
upperback 12.1138 0.0369755 -0.777426
thorax -0.0874074 -0.300696 1.08605
lowerneck 0.858785 -2.20033 -4.60647
upperneck 24.2447 -4.73144 7.59794
head 7.55235 -2.16961 2.99439
rclavicle 1.86858e-014 -2.38542e-015
rhumerus -44.1598 21.8454 -97.3693
rradius 42.3694
rwrist 12.2053
rhand -43.6468 15.3779
rfingers 7.12502
rthumb -16.4812 -13.9421
lclavicle 1.86858e-014 -2.38542e-015
lhumerus -42.2358 -19.2267 100.172
lradius 39.9825
lwrist 1.74483
lhand -20.9643 21.5926
lfingers 7.12502
lthumb 5.4088 51.5036
rfemur -47.4518 -5.67206 8.30056
rtibia 58.0453
rfoot -23.8684 -0.107099
rtoes -12.9918
lfemur -42.7952 11.4294 -15.735
ltibia 55.876
lfoot -3.99713 0.94147
ltoes -17.3042
1405
root -1.1327 17.049 -5.24084 -180.697 224.548 -169.667
lowerback 24.1481 1.05264 -3.43316
upperback 12.0951 0.130786 -0.796708
thorax -0.130401 -0.253981 1.06403
lowerneck 1.16779 -2.21039 -4.60273
upperneck 24.2542 -4.76332 7.62391
head 7.50356 -2.19051 3.00463
rclavicle -1.07344e-014 3.02153e-014
rhumerus -44.9744 22.0327 -97.7651
rradius 43.2839
rwrist 11.0804
rhand -43.7363 14.4106
rfingers 7.12502
rthumb -16.5673 -14.9022
lclavicle -1.07344e-014 3.02153e-014
lhumerus -42.7071 -19.5316 100.279
lradius 40.4227
lwrist 1.67926
lhand -21.2297 20.9541
lfingers 7.12502
lthumb 5.15261 50.8714
rfemur -47.5074 -5.92335 8.35801
rtibia 58.5563
rfoot -23.908 0.0880713
rtoes -12.9855
lfemur -42.9349 11.5355 -15.6799
ltibia 56.5102
lfoot -4.29963 0.9072
ltoes -18.7307
1406
root -1.09408 17.0036 -5.25179 -180.828 224.349 -169.872
lowerback 24.0751 1.0303 -3.43759
upperback 12.1561 0.106267 -0.768958
thorax -0.0265794 -0.270062 1.10172
lowerneck 1.19883 -2.18896 -4.57691
upperneck 24.2707 -4.69303 7.41861
head 7.49457 -2.17126 2.93654
rclavicle 1.51076e-014 -1.03368e-014
rhumerus -45.5791 22.2989 -97.9356
rradius 44.2036
rwrist 9.81176
rhand -43.0624 14.4599
rfingers 7.12502
rthumb -15.9184 -14.9059
lclavicle 1.51076e-014 -1.03368e-014
lhumerus -42.9427 -19.568 100.299
lradius 40.8607
lwrist 1.50375
lhand -21.5963 20.5614
lfingers 7.12502
lthumb 4.79855 50.487
rfemur -47.5991 -6.28207 8.46788
rtibia 59.0543
rfoot -23.8888 0.237257
rtoes -12.9529
lfemur -43.2115 11.6315 -15.6057
ltibia 57.183
lfoot -4.46787 0.765605
ltoes -19.6916
1407
root -1.05598 16.9615 -5.26815 -180.702 224.137 -170.411
lowerback 23.9893 0.996656 -3.21381
upperback 12.2257 0.116876 -0.653416
thorax 0.0897845 -0.261637 1.09608
lowerneck 1.10251 -2.17653 -4.76415
upperneck 24.338 -4.67362 7.46158
head 7.53745 -2.17164 2.98414
rclavicle 2.10712e-014 4.33351e-014
rhumerus -46.1162 22.4767 -97.9975
rradius 45.1952
rwrist 8.46476
rhand -42.4548 14.7997
rfingers 7.12502
rthumb -15.3333 -14.6118
lclavicle 2.10712e-014 4.33351e-014
lhumerus -43.1211 -19.7808 100.468
lradius 41.2623
lwrist 1.64974
lhand -22.097 20.2939
lfingers 7.12502
lthumb 4.31508 50.2299
rfemur -47.6861 -6.53816 8.83681
rtibia 59.5193
rfoot -23.8747 0.36511
rtoes -12.679
lfemur -43.549 11.679 -15.2311
ltibia 57.8563
lfoot -4.46942 0.434941
ltoes -19.6244
